<svg id="svg_canvas" data-noselect="" viewBox="0 0 800 600" width="704" height="528" preserveAspectRatio="none" version="1.1" xmlns="http://www.w3.org/2000/svg" xmlns:xlink="http://www.w3.org/1999/xlink"><defs></defs> <g id="background" data-noselect=""><!----> <!----></g> <g id="shape_AjwXCJgVSQ" transform="translate(113.37589263916004,234.35412895753998) rotate(0,80,49.967828510696) scale(1,1)" filter="" style="cursor: move; opacity: 1;"><g><rect fill="rgba(0,0,0,0)" width="180" height="119.935657021393" x="-10" y="-10"></rect><svg version="1.1" id="图层_1" xmlns="http://www.w3.org/2000/svg" xmlns:xlink="http://www.w3.org/1999/xlink" x="0px" y="0px" width="160" height="99.935657021393" viewBox="10.189589500427246 43.904483795166016 179.6204071044922 112.19052124023438" enable-background="new 0 0 200 200" xml:space="preserve" preserveAspectRatio="none" class="style-removed" data-parent="shape_AjwXCJgVSQ">
<g>
	<path fill="#246fdd" d="M106.321,89.494c0,0,21.712-23.689,49.111-19.623c20.564,3.052,29.926,14.137,34.378,20.14H176.37
		c0,0-9.943-9.084-23.78-10.899C140.013,77.462,129.843,78.121,106.321,89.494z" stroke-width="0"></path>
	<path fill="#246fdd" d="M147.161,71.716c0,0-5.801-22.574-33.028-27.054S61.92,55.92,43.31,82.687l22.517-4.021
		c0,0,19.354-29.195,47.101-24.24c16.083,2.872,24.699,10.109,27.916,18.496L147.161,71.716z" stroke-width="0"></path>
	<path fill="#24dd7f" d="M62.38,83.893c0,0-46.698,7.782-51.696,38.255c-4.136,25.216,18.611,33.947,33.43,33.947
		c18.036,0,112.698,0,112.698,0l1.206-5.687c0,0-71.397,0.324-101.38,0c-15.968-0.172-28.147-4.996-28.147-22.574
		c0-14.992,12.867-26.502,29.065-32.034L62.38,83.893z" stroke-width="0"></path>
</g>
</svg></g></g><g id="shape_W7YDZ35Q8m" transform="translate(95.90398406982007,97.55687275143998) rotate(0,289.5,203.822) scale(1,1)" filter="" style="cursor: move; opacity: 1;"><g><svg xmlns="http://www.w3.org/2000/svg" version="1.1" xmlns:xlink="http://www.w3.org/1999/xlink" width="695" height="407.644" viewBox="0 0 695 407.644"><g data-width="462.028" transform="translate(58, 0)"><path d="M9.80 0L0.17 0L16.18-38.69L25.64-38.69L41.64 0L32.02 0L28.25-8.93L13.57-8.93L9.80 0ZM26.45-15.83L20.94-29.35L15.43-15.83L26.45-15.83Z" transform="translate(0 223.822) skewX(-14)" fill="#246fdd" stroke="#246fdd" stroke-width="0.097" data-glyph-w="41.876000000000005" data-glyph-h="58" data-glyph-ascender="49.822" data-glyph-descender="-8.178"></path><path d="M3.94-38.69L12.18-38.69L12.18 0L3.94 0L3.94-38.69ZM26.51 0L12.47-19.55L27.26-38.69L38.11-38.69L21.92-19.55L37.35 0L26.51 0Z" transform="translate(41.876000000000005 223.822) skewX(-14)" fill="#246fdd" stroke="#246fdd" stroke-width="0.097" data-glyph-w="38.222" data-glyph-h="58" data-glyph-ascender="49.822" data-glyph-descender="-8.178"></path><path d="M27.61 0L11.83-28.36L11.83 0L3.94 0L3.94-38.69L14.50-38.69L29.87-9.86L29.87-38.69L37.70-38.69L37.70 0L27.61 0Z" transform="translate(80.09800000000001 223.822) skewX(-14)" fill="#246fdd" stroke="#246fdd" stroke-width="0.097" data-glyph-w="41.644000000000005" data-glyph-h="58" data-glyph-ascender="49.822" data-glyph-descender="-8.178"></path><path d="M12.18 0L3.94 0L3.94-38.69L12.18-38.69L12.18 0Z" transform="translate(121.74200000000002 223.822) skewX(-14)" fill="#246fdd" stroke="#246fdd" stroke-width="0.097" data-glyph-w="16.066000000000003" data-glyph-h="58" data-glyph-ascender="49.822" data-glyph-descender="-8.178"></path><path d="M21.52-6.90L33.35-6.90L33.35 0L19.84 0Q16.01 0 13.98-0.41L13.98-0.41Q6.84-1.80 3.83-8.35L3.83-8.35Q1.86-12.76 1.86-19.26L1.86-19.26Q1.86-27.03 4.87-31.90L4.87-31.90Q7.08-35.44 10.76-37.06Q14.44-38.69 20.24-38.69L20.24-38.69L33.35-38.69L33.35-31.78L21.17-31.78Q15.66-31.78 13.11-28.83L13.11-28.83Q10.96-26.39 10.96-20.01L10.96-20.01Q10.96-11.43 14.27-8.76L14.27-8.76Q16.59-6.90 21.52-6.90L21.52-6.90Z" transform="translate(137.80800000000002 223.822) skewX(-14)" fill="#246fdd" stroke="#246fdd" stroke-width="0.097" data-glyph-w="35.148" data-glyph-h="58" data-glyph-ascender="49.822" data-glyph-descender="-8.178"></path><path d="M19.08-38.69L32.94-38.69L32.94-31.78L22.21-31.78Q18.04-31.78 16.12-31.20Q14.21-30.62 12.93-28.94L12.93-28.94Q12.06-27.78 11.75-26.62Q11.43-25.46 11.19-22.68L11.19-22.68L32.94-22.68L32.94-15.78L11.19-15.78Q11.66-10.79 14.15-8.85Q16.65-6.90 22.62-6.90L22.62-6.90L32.94-6.90L32.94 0L22.21 0Q17.86 0 14.56-0.52L14.56-0.52Q9.34-1.39 6.26-5.10L6.26-5.10Q1.86-10.44 1.86-19.55L1.86-19.55Q1.86-29.64 8.06-35.26L8.06-35.26Q10.21-37.18 12.62-37.93Q15.02-38.69 19.08-38.69L19.08-38.69Z" transform="translate(172.95600000000002 223.822) skewX(-14)" fill="#246fdd" stroke="#246fdd" stroke-width="0.097" data-glyph-w="35.496" data-glyph-h="58" data-glyph-ascender="49.822" data-glyph-descender="-8.178"></path><path d="M23.20 0L3.77 0L3.77-6.90L21.46-6.90Q25.69-6.90 27.09-7.71L27.09-7.71Q29.12-8.93 29.12-11.37L29.12-11.37Q29.12-14.21 26.74-15.49L26.74-15.49Q25.40-16.24 22.45-16.24L22.45-16.24L15.25-16.24Q8.70-16.24 5.80-18.62L5.80-18.62Q4.00-20.13 2.99-22.39Q1.97-24.65 1.97-27.26L1.97-27.26Q1.97-31.32 4.35-34.68L4.35-34.68Q6.67-37.93 11.77-38.51L11.77-38.51Q13.51-38.69 16.94-38.69L16.94-38.69L36.13-38.69L36.13-31.78L18.79-31.78Q14.91-31.73 13.63-31.44L13.63-31.44Q11.02-30.80 11.02-27.49L11.02-27.49Q11.02-24.71 13.22-23.78L13.22-23.78Q14.67-23.08 18.10-23.08L18.10-23.08L24.30-23.08Q29.06-23.08 31.38-22.27L31.38-22.27Q35.50-20.88 37.06-17.40L37.06-17.40Q38.28-14.62 38.28-11.43L38.28-11.43Q38.28-7.89 36.66-5.10L36.66-5.10Q34.39-1.16 29.87-0.35L29.87-0.35Q27.67 0 23.20 0L23.20 0Z" transform="translate(208.45200000000003 223.822) skewX(-14)" fill="#246fdd" stroke="#246fdd" stroke-width="0.097" data-glyph-w="40.31" data-glyph-h="58" data-glyph-ascender="49.822" data-glyph-descender="-8.178"></path><path d="" transform="translate(248.76200000000003 223.822) skewX(-14)" fill="#246fdd" stroke="#246fdd" stroke-width="0.097" data-glyph-w="23.084" data-glyph-h="58" data-glyph-ascender="51.04" data-glyph-descender="-6.96"></path><path d="M21.52-6.90L33.35-6.90L33.35 0L19.84 0Q16.01 0 13.98-0.41L13.98-0.41Q6.84-1.80 3.83-8.35L3.83-8.35Q1.86-12.76 1.86-19.26L1.86-19.26Q1.86-27.03 4.87-31.90L4.87-31.90Q7.08-35.44 10.76-37.06Q14.44-38.69 20.24-38.69L20.24-38.69L33.35-38.69L33.35-31.78L21.17-31.78Q15.66-31.78 13.11-28.83L13.11-28.83Q10.96-26.39 10.96-20.01L10.96-20.01Q10.96-11.43 14.27-8.76L14.27-8.76Q16.59-6.90 21.52-6.90L21.52-6.90Z" transform="translate(271.846 223.822) skewX(-14)" fill="#246fdd" stroke="#246fdd" stroke-width="0.097" data-glyph-w="35.148" data-glyph-h="58" data-glyph-ascender="49.822" data-glyph-descender="-8.178"></path><path d="M3.48-16.94L3.48-38.69L11.66-38.69L11.66-16.94Q11.83-12.82 12.01-11.48L12.01-11.48Q12.41-8.82 14.56-7.86Q16.70-6.90 22.10-6.90L22.10-6.90L29.99-6.90L29.99 0L21.23 0Q15.02 0 12.24-0.70L12.24-0.70Q5.86-2.55 4.12-8.82L4.12-8.82Q3.48-11.25 3.48-16.94L3.48-16.94Z" transform="translate(306.994 223.822) skewX(-14)" fill="#246fdd" stroke="#246fdd" stroke-width="0.097" data-glyph-w="30.856" data-glyph-h="58" data-glyph-ascender="49.822" data-glyph-descender="-8.178"></path><path d="M20.94-38.92L20.94-38.92Q26.74-38.92 31.15-36.95L31.15-36.95Q36.31-34.57 38.40-29L38.40-29Q40.02-24.65 40.02-18.79L40.02-18.79Q40.02-12.88 38.05-8.53L38.05-8.53Q35.55-3.36 30.39-1.28L30.39-1.28Q26.56 0.23 21.58 0.23L21.58 0.23Q15.02 0.23 10.21-2.20L10.21-2.20Q6.15-4.23 4.00-8.58Q1.86-12.93 1.86-19.14L1.86-19.14Q1.86-30.22 7.37-34.92L7.37-34.92Q12.01-38.86 20.94-38.92ZM21.00-32.42L21.00-32.42Q15.31-32.42 12.88-28.71L12.88-28.71Q10.90-25.81 10.90-19.37L10.90-19.37Q10.90-12.59 13.34-9.40L13.34-9.40Q15.78-6.26 21.05-6.26L21.05-6.26Q26.16-6.26 28.57-9.45Q30.97-12.64 30.97-19.31L30.97-19.31Q30.97-25.40 29-28.59L29-28.59Q26.74-32.36 21.00-32.42Z" transform="translate(337.85 223.822) skewX(-14)" fill="#246fdd" stroke="#246fdd" stroke-width="0.097" data-glyph-w="41.876000000000005" data-glyph-h="58" data-glyph-ascender="49.822" data-glyph-descender="-8.178"></path><path d="M3.48-38.69L11.66-38.69L11.66-15.49Q11.66-12.70 12.12-11.17Q12.59-9.63 13.69-8.53L13.69-8.53Q16.12-6.15 20.47-6.15L20.47-6.15Q23.26-6.15 25.32-7.11Q27.38-8.06 28.19-9.69L28.19-9.69Q29-11.31 29-15.49L29-15.49L29-38.69L37.24-38.69L37.24-15.89Q37.24-11.37 36.28-8.44Q35.32-5.51 33.35-3.71L33.35-3.71Q28.77 0.29 20.36 0.29L20.36 0.29Q11.37 0.29 7.25-3.65L7.25-3.65Q5.10-5.68 4.29-8.21Q3.48-10.73 3.48-15.31L3.48-15.31L3.48-38.69Z" transform="translate(379.726 223.822) skewX(-14)" fill="#246fdd" stroke="#246fdd" stroke-width="0.097" data-glyph-w="40.774" data-glyph-h="58" data-glyph-ascender="49.822" data-glyph-descender="-8.178"></path><path d="M3.94 0L3.94-38.69L20.36-38.69Q26.51-38.69 29.87-37.47L29.87-37.47Q36.08-35.21 38.16-29.17L38.16-29.17Q39.73-24.53 39.73-19.26L39.73-19.26Q39.73-14.04 38.22-9.40L38.22-9.40Q36.71-4.64 33.23-2.38L33.23-2.38Q31.03-0.99 28.39-0.49Q25.75 0 20.36 0L20.36 0L3.94 0ZM20.36-31.78L12.18-31.78L12.18-6.90L20.36-6.90Q25.75-6.90 27.84-9.28L27.84-9.28Q29.12-10.79 29.90-13.51Q30.68-16.24 30.68-19.31L30.68-19.31Q30.68-22.74 29.75-25.58Q28.83-28.42 27.32-29.81L27.32-29.81Q25.11-31.78 20.36-31.78L20.36-31.78Z" transform="translate(420.5 223.822) skewX(-14)" fill="#246fdd" stroke="#246fdd" stroke-width="0.097" data-glyph-w="41.528" data-glyph-h="58" data-glyph-ascender="49.822" data-glyph-descender="-8.178"></path></g></svg></g></g><g id="shape_KGTd7uuhMV" transform="translate(140.62410736084004,262.64587104246) rotate(0,342.3181818181818,90.5) scale(1,1)" filter="" style="cursor: move; opacity: 1;"><g><svg xmlns="http://www.w3.org/2000/svg" version="1.1" xmlns:xlink="http://www.w3.org/1999/xlink" width="734.6363636363636" height="181" viewBox="0 0 734.6363636363636 181" data-parent="shape_KGTd7uuhMV"><rect fill="rgba(0,0,0,0)" width="634.6363636363636" height="25" x="25" y="78"></rect><g data-width="233.75" transform="translate(25, 0)"><line x1="0" x2="233.75" y1="102.5" y2="102.5" stroke="rgb(36, 111, 221)" stroke-width="0" stroke-opacity="1"></line></g><g data-width="233.75" transform="translate(25, 0)"><path d="M18.45-15.60L16.60-13.75L19.65-13.75L18.65-4.48L7.50-4.48L7.70-6.55L16.50-6.55L16.70-8.25L8.43-8.25L8.60-9.98L16.88-9.98L17.03-11.63L8.38-11.63L8.60-13.75L14.25-13.75L15.58-15.60L11.08-15.60L10.08-14.33L8.05-14.33L11.03-19.07L13.78-19.07L12.75-17.78L18.68-17.78L18.45-15.60ZM7-4.20L5.90-4.20L5.43-9.10L4.05 4.08L1.80 4.08L3.38-10.65L0.63 1.85L-0.55 1.85L1.88-10.98L1.03-10.98L1.25-13.25L3.65-13.25L3.93-16.05L1.80-16.05L2.05-18.30L6.40-18.30L8.33-19L8.08-16.70L6.15-16.05L5.85-13.25L7.83-13.25L7.58-10.98L5.63-10.98L5.43-9.22L6.98-9.22L7-4.20ZM15.10-1.65L16.20-3.13L18.30-3.13L18.57 3.05L17.03 3.05L16.45-1.18L15.18 0.18L13.70 0.18L12.83-3.53L15-3.53L15.10-1.65ZM5.33 3.05L6.80-3.13L8.95-3.13L6.80 3.05L5.33 3.05ZM9.50-3.13L12-3.13L11.53 1.38L15.93 1.38L14.90 3.63L8.78 3.63L9.50-3.13Z" transform="translate(0 100) skewX(0)" fill="#000000" stroke="#000000" stroke-width="0.042" stroke-miterlimit="3" data-glyph-w="21.25" data-glyph-h="30" data-glyph-ascender="25" data-glyph-descender="-5"></path><path d="M12.58-19.07L12.43-17.25L20.13-17.25L19.65-12.65L17.15-12.65L17.38-14.83L4.28-14.83L4.08-12.65L1.53-12.65L2.02-17.25L9.73-17.25L9.95-19.07L12.58-19.07ZM9.38-9.25L1.65-9.25L1.90-11.70L19.18-11.70L18.90-9.25L11.95-9.25L11.60-5.90L18-5.90L17.73-3.48L11.33-3.48L10.80 1.63L18.60 1.63L17.73 4.08L5.50 4.08L2.35 1.05L1.20 4.08L-0.73 4.08L3.10-7.75L5.73-7.75L3.38-1.60L6.48 1.63L8.25 1.63L9.38-9.25Z" transform="translate(21.25 100) skewX(0)" fill="#000000" stroke="#000000" stroke-width="0.042" stroke-miterlimit="3" data-glyph-w="21.25" data-glyph-h="30" data-glyph-ascender="25" data-glyph-descender="-5"></path><path d="M7.10-19.07L3.78-12.73L5.35-12.73L3.60 4.10L1.13 4.10L2.68-10.65L0.55-10.65L4.45-19.07L7.10-19.07ZM20.58-18.45L20.35-16.30L14.80-16.30L14.63-14.60L19.53-14.60L18.43-4.17L13.43-4.17L11.30-1.65L18.53 4.10L15.60 4.10L9.93 0.03L6.50 4.10L4.28 4.10L8.28-1.18L5.18-3.40L9.10-3.40L9.65-2.98L10.55-4.17L6.23-4.17L7.30-14.60L12.23-14.60L12.40-16.30L6.88-16.30L7.10-18.45L20.58-18.45ZM12-12.45L9.28-12.45L9.05-10.43L11.78-10.43L12-12.45ZM16.88-10.43L17.10-12.45L14.40-12.45L14.18-10.43L16.88-10.43ZM11.58-8.55L8.85-8.55L8.63-6.33L11.35-6.33L11.58-8.55ZM13.75-6.33L16.45-6.33L16.70-8.55L13.98-8.55L13.75-6.33Z" transform="translate(42.5 100) skewX(0)" fill="#000000" stroke="#000000" stroke-width="0.042" stroke-miterlimit="3" data-glyph-w="21.25" data-glyph-h="30" data-glyph-ascender="25" data-glyph-descender="-5"></path><path d="M4.03-13.30L1.58-13.30L2-17.50L9.70-17.50L9.88-19.05L12.63-19.05L12.48-17.50L20.18-17.50L19.73-13.30L17.28-13.30L17.45-15.13L4.20-15.13L4.03-13.30ZM18.38 3.68L-0.60 3.68L-0.35 1.28L2.20 1.28L3.70-12.75L17.43-12.75L15.95 1.28L18.60 1.28L18.38 3.68ZM5.90-10.40L5.70-8.13L14.50-8.13L14.73-10.40L5.90-10.40ZM5.43-5.73L5.18-3.48L13.98-3.48L14.23-5.73L5.43-5.73ZM4.93-1.10L4.73 1.28L13.53 1.28L13.73-1.10L4.93-1.10Z" transform="translate(63.75 100) skewX(0)" fill="#000000" stroke="#000000" stroke-width="0.042" stroke-miterlimit="3" data-glyph-w="21.25" data-glyph-h="30" data-glyph-ascender="25" data-glyph-descender="-5"></path><path d="M5.68-19.07L5.10-16L8.80-16L8.55-13.83L7.83-7.10L7.70-5.90L5.08-1.88L7.13 4.08L5.28 4.08L3.60 0.38L1.20 4.05L-0.63 4.08L2.63-1.80L0.83-5.75L2.30-13.83L1.25-13.83L1.48-16L2.70-16L3.28-19.07L5.68-19.07ZM20.05-18.18L19.80-15.75L15.88-10.58L15.68-9.08L19.70-9.08L19.50-6.63L15.45-6.63L14.33 4.05L10.10 4.05L9.55 1.68L12.08 1.68L12.93-6.63L8.70-6.63L8.95-9.08L13.20-9.08L13.45-11.30L16.88-15.75L10.33-15.75L10.58-18.18L20.05-18.18ZM4.15-4.55L5.55-7.10L6.25-13.83L4.70-13.83L3.40-6.73L4.15-4.55Z" transform="translate(85 100) skewX(0)" fill="#000000" stroke="#000000" stroke-width="0.042" stroke-miterlimit="3" data-glyph-w="21.25" data-glyph-h="30" data-glyph-ascender="25" data-glyph-descender="-5"></path><path d="M1.20 4.03L-0.60 4.03L1.70-5.30L3.05-18.35L19.95-18.35L17.63 4.03L14.05 4.03L13.65 1.75L15.40 1.75L16-3.98L11.23-3.98L10.43 3.55L8 3.55L8.80-3.98L3.95-3.98L1.20 4.03ZM5.25-16.07L4.88-12.23L9.68-12.23L10.08-16.07L5.25-16.07ZM12.50-16.07L12.10-12.23L16.88-12.23L17.28-16.07L12.50-16.07ZM4.63-10.03L4.23-6.23L9.05-6.23L9.43-10.03L4.63-10.03ZM11.85-10.03L11.45-6.23L16.25-6.23L16.63-10.03L11.85-10.03Z" transform="translate(106.25 100) skewX(0)" fill="#000000" stroke="#000000" stroke-width="0.042" stroke-miterlimit="3" data-glyph-w="21.25" data-glyph-h="30" data-glyph-ascender="25" data-glyph-descender="-5"></path><path d="M7.63-19.07L6.60-16.57L9.75-16.57L7.65 3.05L-0.18 3.05L1.88-16.57L4.42-16.57L4.95-19.07L7.63-19.07ZM15.10-19.07L13.93-16.70L20.05-16.70L17.88 4.08L13.88 4.08L13.40 1.60L15.70 1.60L17.38-14.23L12.73-14.23L11.33-11.40L9.40-11.40L12.30-19.07L15.10-19.07ZM3.33-8.45L6.60-8.45L7.20-14.23L3.93-14.23L3.33-8.45ZM10.53-10.70L13.35-10.70L14.13-2.30L12.23-2.30L10.53-10.70ZM2.35 0.68L5.63 0.68L6.35-6.20L3.08-6.20L2.35 0.68Z" transform="translate(127.5 100) skewX(0)" fill="#000000" stroke="#000000" stroke-width="0.042" stroke-miterlimit="3" data-glyph-w="21.25" data-glyph-h="30" data-glyph-ascender="25" data-glyph-descender="-5"></path><path d="M1.18 4.23L-0.70 4.23L1.68-5.85L2.65-14.93L9.70-14.93L10.15-19.10L12.63-19.10L12.55-18.05L19.53-18.05L19.33-16.07L12.35-16.07L12.20-14.93L20.13-14.93L19.90-12.75L19.07-10.95L17.05-10.95L17.45-12.73L11.35-12.73L11.20-11.35L16.43-11.73L16.20-9.80L11.03-9.47L10.90-8.33L18.48-8.33L17.63-6.23L8.15-6.23L8.50-9.33L5.23-9.13L5.40-11L8.70-11.20L8.85-12.73L4.93-12.73L4.25-6.38L1.18 4.23ZM18.35 3.63L3.20 3.63L3.43 1.45L7.68 1.45L8.38-5.43L10.83-5.43L10.10 1.45L11.85 1.45L12.58-5.43L15.03-5.43L14.30 1.45L18.60 1.45L18.35 3.63ZM7.03 0.30L5.40 0.30L4.78-4.85L7.03-4.85L7.03 0.30ZM16.80 0.30L15.15 0.30L16.25-4.85L18.50-4.85L16.80 0.30Z" transform="translate(148.75 100) skewX(0)" fill="#000000" stroke="#000000" stroke-width="0.042" stroke-miterlimit="3" data-glyph-w="21.25" data-glyph-h="30" data-glyph-ascender="25" data-glyph-descender="-5"></path><path d="M6.78-9.68L6.50-7.10L4.75-6.43L3.65 4.08L0.75 4.08L0.18 1.75L1.53 1.75L2.27-5.48L0.23-4.70L0.50-7.30L2.55-8.08L3.10-13.33L1.15-13.33L1.40-15.73L3.35-15.73L3.70-19.07L6.08-19.07L5.73-15.73L7.40-15.73L7.15-13.33L5.48-13.33L5.03-9L6.78-9.68ZM16.30-19.07L18.70-19.07L17.82-10.78L18.28 4.08L16.63 4.08L15.88-5.10L12.33 4.08L10.55 4.08L15.43-10.78L16.30-19.07ZM9.08-1.88L12.05-3.53L11.80-1.30L6.23 2.53L8.43-18.45L10.83-18.45L9.08-1.88ZM13.95-16.95L14.13-9.80L12.58-9.80L11.65-16.95L13.95-16.95Z" transform="translate(170 100) skewX(0)" fill="#000000" stroke="#000000" stroke-width="0.042" stroke-miterlimit="3" data-glyph-w="21.25" data-glyph-h="30" data-glyph-ascender="25" data-glyph-descender="-5"></path><path d="M18.45 3.55L-0.53 3.55L-0.28 1.15L7.83 1.15L8.60-5.93L2.23-5.93L2.48-8.35L8.83-8.35L9.43-14.10L2.23-14.10L2.50-16.53L9.70-16.53L9.98-19.03L12.65-19.03L12.40-16.53L19.60-16.53L19.33-14.10L12.13-14.10L11.53-8.35L17.88-8.35L17.63-5.93L11.28-5.93L10.53 1.15L18.70 1.15L18.45 3.55Z" transform="translate(191.25 100) skewX(0)" fill="#000000" stroke="#000000" stroke-width="0.042" stroke-miterlimit="3" data-glyph-w="21.25" data-glyph-h="30" data-glyph-ascender="25" data-glyph-descender="-5"></path><path d="M9.35-15.85L9.13-13.55L6.35-13.55L4.53 4.05L2.43 4.05L4.28-13.55L3.98-13.55L0.58 3.03L-0.70 3.03L2.25-13.55L1.38-13.55L1.60-15.85L4.53-15.85L4.85-19.13L6.93-19.13L6.60-15.85L9.35-15.85ZM18.68-18.50L16.57 1.48L18.78 1.48L17.95 3.93L13.93 3.93L16.07-16.13L12.38-16.13L11.68-9.33L8.78 4.10L6.90 4.10L7.58 0.30L6.48 0.30L6.28-11.45L8.13-11.45L7.93-1.68L9.30-9.55L10.23-18.50L18.68-18.50Z" transform="translate(212.5 100) skewX(0)" fill="#000000" stroke="#000000" stroke-width="0.042" stroke-miterlimit="3" data-glyph-w="21.25" data-glyph-h="30" data-glyph-ascender="25" data-glyph-descender="-5"></path></g><g data-width="233.75" transform="translate(25, 0)"><path d="M18.45-15.60L16.60-13.75L19.65-13.75L18.65-4.48L7.50-4.48L7.70-6.55L16.50-6.55L16.70-8.25L8.43-8.25L8.60-9.98L16.88-9.98L17.03-11.63L8.38-11.63L8.60-13.75L14.25-13.75L15.58-15.60L11.08-15.60L10.08-14.33L8.05-14.33L11.03-19.07L13.78-19.07L12.75-17.78L18.68-17.78L18.45-15.60ZM7-4.20L5.90-4.20L5.43-9.10L4.05 4.08L1.80 4.08L3.38-10.65L0.63 1.85L-0.55 1.85L1.88-10.98L1.03-10.98L1.25-13.25L3.65-13.25L3.93-16.05L1.80-16.05L2.05-18.30L6.40-18.30L8.33-19L8.08-16.70L6.15-16.05L5.85-13.25L7.83-13.25L7.58-10.98L5.63-10.98L5.43-9.22L6.98-9.22L7-4.20ZM15.10-1.65L16.20-3.13L18.30-3.13L18.57 3.05L17.03 3.05L16.45-1.18L15.18 0.18L13.70 0.18L12.83-3.53L15-3.53L15.10-1.65ZM5.33 3.05L6.80-3.13L8.95-3.13L6.80 3.05L5.33 3.05ZM9.50-3.13L12-3.13L11.53 1.38L15.93 1.38L14.90 3.63L8.78 3.63L9.50-3.13Z" transform="translate(0 100) skewX(0)" fill="rgb(36, 111, 221)" stroke="rgb(36, 111, 221)" stroke-width="0.042" data-glyph-w="21.25" data-glyph-h="30" data-glyph-ascender="25" data-glyph-descender="-5"></path><path d="M12.58-19.07L12.43-17.25L20.13-17.25L19.65-12.65L17.15-12.65L17.38-14.83L4.28-14.83L4.08-12.65L1.53-12.65L2.02-17.25L9.73-17.25L9.95-19.07L12.58-19.07ZM9.38-9.25L1.65-9.25L1.90-11.70L19.18-11.70L18.90-9.25L11.95-9.25L11.60-5.90L18-5.90L17.73-3.48L11.33-3.48L10.80 1.63L18.60 1.63L17.73 4.08L5.50 4.08L2.35 1.05L1.20 4.08L-0.73 4.08L3.10-7.75L5.73-7.75L3.38-1.60L6.48 1.63L8.25 1.63L9.38-9.25Z" transform="translate(21.25 100) skewX(0)" fill="rgb(36, 111, 221)" stroke="rgb(36, 111, 221)" stroke-width="0.042" data-glyph-w="21.25" data-glyph-h="30" data-glyph-ascender="25" data-glyph-descender="-5"></path><path d="M7.10-19.07L3.78-12.73L5.35-12.73L3.60 4.10L1.13 4.10L2.68-10.65L0.55-10.65L4.45-19.07L7.10-19.07ZM20.58-18.45L20.35-16.30L14.80-16.30L14.63-14.60L19.53-14.60L18.43-4.17L13.43-4.17L11.30-1.65L18.53 4.10L15.60 4.10L9.93 0.03L6.50 4.10L4.28 4.10L8.28-1.18L5.18-3.40L9.10-3.40L9.65-2.98L10.55-4.17L6.23-4.17L7.30-14.60L12.23-14.60L12.40-16.30L6.88-16.30L7.10-18.45L20.58-18.45ZM12-12.45L9.28-12.45L9.05-10.43L11.78-10.43L12-12.45ZM16.88-10.43L17.10-12.45L14.40-12.45L14.18-10.43L16.88-10.43ZM11.58-8.55L8.85-8.55L8.63-6.33L11.35-6.33L11.58-8.55ZM13.75-6.33L16.45-6.33L16.70-8.55L13.98-8.55L13.75-6.33Z" transform="translate(42.5 100) skewX(0)" fill="rgb(36, 111, 221)" stroke="rgb(36, 111, 221)" stroke-width="0.042" data-glyph-w="21.25" data-glyph-h="30" data-glyph-ascender="25" data-glyph-descender="-5"></path><path d="M4.03-13.30L1.58-13.30L2-17.50L9.70-17.50L9.88-19.05L12.63-19.05L12.48-17.50L20.18-17.50L19.73-13.30L17.28-13.30L17.45-15.13L4.20-15.13L4.03-13.30ZM18.38 3.68L-0.60 3.68L-0.35 1.28L2.20 1.28L3.70-12.75L17.43-12.75L15.95 1.28L18.60 1.28L18.38 3.68ZM5.90-10.40L5.70-8.13L14.50-8.13L14.73-10.40L5.90-10.40ZM5.43-5.73L5.18-3.48L13.98-3.48L14.23-5.73L5.43-5.73ZM4.93-1.10L4.73 1.28L13.53 1.28L13.73-1.10L4.93-1.10Z" transform="translate(63.75 100) skewX(0)" fill="rgb(36, 111, 221)" stroke="rgb(36, 111, 221)" stroke-width="0.042" data-glyph-w="21.25" data-glyph-h="30" data-glyph-ascender="25" data-glyph-descender="-5"></path><path d="M5.68-19.07L5.10-16L8.80-16L8.55-13.83L7.83-7.10L7.70-5.90L5.08-1.88L7.13 4.08L5.28 4.08L3.60 0.38L1.20 4.05L-0.63 4.08L2.63-1.80L0.83-5.75L2.30-13.83L1.25-13.83L1.48-16L2.70-16L3.28-19.07L5.68-19.07ZM20.05-18.18L19.80-15.75L15.88-10.58L15.68-9.08L19.70-9.08L19.50-6.63L15.45-6.63L14.33 4.05L10.10 4.05L9.55 1.68L12.08 1.68L12.93-6.63L8.70-6.63L8.95-9.08L13.20-9.08L13.45-11.30L16.88-15.75L10.33-15.75L10.58-18.18L20.05-18.18ZM4.15-4.55L5.55-7.10L6.25-13.83L4.70-13.83L3.40-6.73L4.15-4.55Z" transform="translate(85 100) skewX(0)" fill="rgb(36, 111, 221)" stroke="rgb(36, 111, 221)" stroke-width="0.042" data-glyph-w="21.25" data-glyph-h="30" data-glyph-ascender="25" data-glyph-descender="-5"></path><path d="M1.20 4.03L-0.60 4.03L1.70-5.30L3.05-18.35L19.95-18.35L17.63 4.03L14.05 4.03L13.65 1.75L15.40 1.75L16-3.98L11.23-3.98L10.43 3.55L8 3.55L8.80-3.98L3.95-3.98L1.20 4.03ZM5.25-16.07L4.88-12.23L9.68-12.23L10.08-16.07L5.25-16.07ZM12.50-16.07L12.10-12.23L16.88-12.23L17.28-16.07L12.50-16.07ZM4.63-10.03L4.23-6.23L9.05-6.23L9.43-10.03L4.63-10.03ZM11.85-10.03L11.45-6.23L16.25-6.23L16.63-10.03L11.85-10.03Z" transform="translate(106.25 100) skewX(0)" fill="rgb(36, 111, 221)" stroke="rgb(36, 111, 221)" stroke-width="0.042" data-glyph-w="21.25" data-glyph-h="30" data-glyph-ascender="25" data-glyph-descender="-5"></path><path d="M7.63-19.07L6.60-16.57L9.75-16.57L7.65 3.05L-0.18 3.05L1.88-16.57L4.42-16.57L4.95-19.07L7.63-19.07ZM15.10-19.07L13.93-16.70L20.05-16.70L17.88 4.08L13.88 4.08L13.40 1.60L15.70 1.60L17.38-14.23L12.73-14.23L11.33-11.40L9.40-11.40L12.30-19.07L15.10-19.07ZM3.33-8.45L6.60-8.45L7.20-14.23L3.93-14.23L3.33-8.45ZM10.53-10.70L13.35-10.70L14.13-2.30L12.23-2.30L10.53-10.70ZM2.35 0.68L5.63 0.68L6.35-6.20L3.08-6.20L2.35 0.68Z" transform="translate(127.5 100) skewX(0)" fill="rgb(36, 111, 221)" stroke="rgb(36, 111, 221)" stroke-width="0.042" data-glyph-w="21.25" data-glyph-h="30" data-glyph-ascender="25" data-glyph-descender="-5"></path><path d="M1.18 4.23L-0.70 4.23L1.68-5.85L2.65-14.93L9.70-14.93L10.15-19.10L12.63-19.10L12.55-18.05L19.53-18.05L19.33-16.07L12.35-16.07L12.20-14.93L20.13-14.93L19.90-12.75L19.07-10.95L17.05-10.95L17.45-12.73L11.35-12.73L11.20-11.35L16.43-11.73L16.20-9.80L11.03-9.47L10.90-8.33L18.48-8.33L17.63-6.23L8.15-6.23L8.50-9.33L5.23-9.13L5.40-11L8.70-11.20L8.85-12.73L4.93-12.73L4.25-6.38L1.18 4.23ZM18.35 3.63L3.20 3.63L3.43 1.45L7.68 1.45L8.38-5.43L10.83-5.43L10.10 1.45L11.85 1.45L12.58-5.43L15.03-5.43L14.30 1.45L18.60 1.45L18.35 3.63ZM7.03 0.30L5.40 0.30L4.78-4.85L7.03-4.85L7.03 0.30ZM16.80 0.30L15.15 0.30L16.25-4.85L18.50-4.85L16.80 0.30Z" transform="translate(148.75 100) skewX(0)" fill="rgb(36, 111, 221)" stroke="rgb(36, 111, 221)" stroke-width="0.042" data-glyph-w="21.25" data-glyph-h="30" data-glyph-ascender="25" data-glyph-descender="-5"></path><path d="M6.78-9.68L6.50-7.10L4.75-6.43L3.65 4.08L0.75 4.08L0.18 1.75L1.53 1.75L2.27-5.48L0.23-4.70L0.50-7.30L2.55-8.08L3.10-13.33L1.15-13.33L1.40-15.73L3.35-15.73L3.70-19.07L6.08-19.07L5.73-15.73L7.40-15.73L7.15-13.33L5.48-13.33L5.03-9L6.78-9.68ZM16.30-19.07L18.70-19.07L17.82-10.78L18.28 4.08L16.63 4.08L15.88-5.10L12.33 4.08L10.55 4.08L15.43-10.78L16.30-19.07ZM9.08-1.88L12.05-3.53L11.80-1.30L6.23 2.53L8.43-18.45L10.83-18.45L9.08-1.88ZM13.95-16.95L14.13-9.80L12.58-9.80L11.65-16.95L13.95-16.95Z" transform="translate(170 100) skewX(0)" fill="rgb(36, 111, 221)" stroke="rgb(36, 111, 221)" stroke-width="0.042" data-glyph-w="21.25" data-glyph-h="30" data-glyph-ascender="25" data-glyph-descender="-5"></path><path d="M18.45 3.55L-0.53 3.55L-0.28 1.15L7.83 1.15L8.60-5.93L2.23-5.93L2.48-8.35L8.83-8.35L9.43-14.10L2.23-14.10L2.50-16.53L9.70-16.53L9.98-19.03L12.65-19.03L12.40-16.53L19.60-16.53L19.33-14.10L12.13-14.10L11.53-8.35L17.88-8.35L17.63-5.93L11.28-5.93L10.53 1.15L18.70 1.15L18.45 3.55Z" transform="translate(191.25 100) skewX(0)" fill="rgb(36, 111, 221)" stroke="rgb(36, 111, 221)" stroke-width="0.042" data-glyph-w="21.25" data-glyph-h="30" data-glyph-ascender="25" data-glyph-descender="-5"></path><path d="M9.35-15.85L9.13-13.55L6.35-13.55L4.53 4.05L2.43 4.05L4.28-13.55L3.98-13.55L0.58 3.03L-0.70 3.03L2.25-13.55L1.38-13.55L1.60-15.85L4.53-15.85L4.85-19.13L6.93-19.13L6.60-15.85L9.35-15.85ZM18.68-18.50L16.57 1.48L18.78 1.48L17.95 3.93L13.93 3.93L16.07-16.13L12.38-16.13L11.68-9.33L8.78 4.10L6.90 4.10L7.58 0.30L6.48 0.30L6.28-11.45L8.13-11.45L7.93-1.68L9.30-9.55L10.23-18.50L18.68-18.50Z" transform="translate(212.5 100) skewX(0)" fill="rgb(36, 111, 221)" stroke="rgb(36, 111, 221)" stroke-width="0.042" data-glyph-w="21.25" data-glyph-h="30" data-glyph-ascender="25" data-glyph-descender="-5"></path></g></svg></g></g> <g id="rectBox"><rect id="rect_shape_AjwXCJgVSQ" width="160" height="99.935657021393" transform="translate(113.37589263916004,234.35412895753998) rotate(0,80,49.967828510696) scale(1,1)" fill="rgba(0,0,0,0)" stroke="transparent" style="cursor: move;"></rect><rect id="rect_shape_W7YDZ35Q8m" width="463" height="58" transform="translate(153.90398406982007,272.37887275144) rotate(0,231.5,29) scale(1,1)" fill="rgba(0,0,0,0)" stroke="transparent" style="cursor: move;"></rect><rect id="rect_shape_KGTd7uuhMV" width="634.6363636363636" height="25" transform="translate(165.62410736084004,340.64587104246) rotate(0,317.3181818181818,12.5) scale(1,1)" fill="rgba(0,0,0,0)" stroke="transparent" style="cursor: move;" class="v-stepText-0"></rect></g> <!----></svg>